<svg width="20" height="20" fill="none" xmlns="http://www.w3.org/2000/svg"><path d="M19.513 11.397a.7.7 0 0 0-.588.128 7.496 7.496 0 0 1-2.276 1.335 7.101 7.101 0 0 1-2.583.463 7.505 7.505 0 0 1-5.32-2.209 7.568 7.568 0 0 1-2.199-5.342c0-.873.154-1.72.41-2.49a6.904 6.904 0 0 1 1.227-2.21.657.657 0 0 0-.102-.924c-.18-.128-.384-.18-.589-.128-2.174.59-4.066 1.9-5.421 3.646A10.158 10.158 0 0 0 0 9.83c0 2.8 1.125 5.342 2.967 7.19a10.025 10.025 0 0 0 7.16 2.98c2.353 0 4.527-.822 6.266-2.183a10.13 10.13 0 0 0 3.58-5.624.623.623 0 0 0-.46-.796Z" fill="#697C9A"/></svg>